<svg width="1440" height="948" viewBox="0 0 1440 948" fill="none" xmlns="http://www.w3.org/2000/svg">
<mask id="mask0" mask-type="alpha" maskUnits="userSpaceOnUse" x="0" y="-149" width="1726" height="1152">
<rect y="-148.923" width="1725.54" height="1151.87" rx="54.4907" fill="#1F40FF"/>
</mask>
<g mask="url(#mask0)">
<circle cx="-56.3666" cy="956.762" r="551.657" fill="#1E1E22"/>
<circle cx="-22.1877" cy="1058.4" r="340.403" stroke="#313134" stroke-width="0.887623"/>
<path d="M-7.1012 -319.196C180.997 -317.224 332.858 -165.571 332.858 21.207C332.858 207.985 180.997 359.638 -7.1012 361.61L236.043 21.207L-7.1012 -319.196Z" fill="#8F69FF"/>
<path d="M-10.8083 -319.169C142.059 -316.813 265.4 -165.324 265.4 21.206C265.4 207.736 142.059 359.225 -10.807 361.581C-12.016 361.596 -13.2237 361.609 -14.4314 361.609C-198.623 361.609 -347.947 209.202 -347.947 21.206C-347.947 -166.79 -198.623 -319.197 -14.4314 -319.197C-13.2237 -319.197 -12.016 -319.184 -10.8083 -319.169ZM152.663 21.206C152.663 -72.9833 77.8535 -149.339 -14.4314 -149.339C-106.716 -149.339 -181.525 -72.9833 -181.525 21.206C-181.525 115.395 -106.715 191.751 -14.4314 191.751C77.8522 191.751 152.663 115.395 152.663 21.206Z" fill="#3957FF"/>
</g>
</svg>
